<svg xmlns="http://www.w3.org/2000/svg" width="3814.121" height="551.091" viewBox="0 0 3814.121 551.091"><defs><style>.a{fill:#ec89b5;}.b{fill:#ea454c;}</style></defs><g transform="translate(-3402.801 5619.756)"><path class="a" d="M4073.338-5349.68c-11.3-19.933-23.218-39.583-36.7-58.121a233.822,233.822,0,0,0-26.9-27.993,158.31,158.31,0,0,0-16.619-9.842,138.123,138.123,0,0,0-14.443-3.989,137.709,137.709,0,0,0-14.931.036,153.2,153.2,0,0,0-17.981,5.019,206,206,0,0,0-27.3,16.533c-24.983,20.682-46.764,45.008-67.7,69.692-21.743,25.63-42.951,51.686-65.22,76.866-7.421,8.39-14.943,18.672-22.515,26.926h357.1c-3.375-7.61-6.82-17.175-10.367-24.707Q4092.859-5315.129,4073.338-5349.68Z" transform="translate(394.016 185.888)"/><path class="a" d="M3695.228-5346.359c22.794-17.465,44.76-35.848,66.324-54.812,29.207-25.682,56.382-53.406,83.5-81.169,21.421-21.933,41.813-44.895,62.24-67.772,18.673-20.913,36.566-48.753,55.84-69.136h-322.3c-131.459,0-238.03,106.571-238.03,238.031v73.965a237.8,237.8,0,0,0,11.688,73.822c47.908-.907,93.654-13.455,138.2-30.927C3604.173-5284.547,3651.317-5312.711,3695.228-5346.359Z" transform="translate(0.001 0.555)"/><path class="a" d="M4696.824-5224.42c-36.278-54.527-70.109-110.6-104.3-166.448-35.743-58.391-68.479-118.652-107.978-174.727-12.372-17.563-24.773-37.469-38.919-53.654H4130.593c-12.57,7.387-24.107,16.328-35.555,25.269a697.318,697.318,0,0,0-71.005,63.88c-23.191,23.882-45.411,48.715-67.819,73.346-14.591,16.038-28.85,32.376-43.1,48.72-24.4,27.973-50.243,54.59-75.528,81.733-17.63,18.928-36.443,36.556-55.2,54.161-42.759,40.125-88.364,76.9-137.985,108.371-39.048,24.763-80.085,45.559-123.719,61.21-15.947,5.721-32.1,10.551-48.429,14.645a237.276,237.276,0,0,0,92.623,18.695h293.859c32.2-29.309,63.274-61.84,93.176-93.49q38.474-40.725,74.422-83.731c22.417-26.755,44.3-54.053,68.7-79.066a373.419,373.419,0,0,1,37.422-33.918c17.357-13.551,34.627-27.192,54.615-36.689,18.438-8.761,37.825-17.05,58.08-20.583,20.664-3.6,41.372-6.335,62.251-3.667,13.916,1.775,27.831,3.191,41.289,7.242,13.43,4.045,26.456,9.76,39.057,15.846a153.113,153.113,0,0,1,20.972,12.328,317.921,317.921,0,0,1,35.749,28.451c16.949,15.9,31.191,34.794,44.879,53.453a540.884,540.884,0,0,1,29.543,45.413,1039.985,1039.985,0,0,1,50.032,96.33c13.512,29.586,26.129,61.621,37.595,92.083h203.576q-9.6-12.018-19.02-24.193Q4741.581-5157.265,4696.824-5224.42Z" transform="translate(75.961 0.555)"/><path class="a" d="M5214.631-5526.835q13.462,17.058,27.672,33.511c15.14,17.487,30.988,34.355,47.379,50.679A238.435,238.435,0,0,0,5160.1-5608c2.324,4.222,4.675,8.346,7.056,12.159Q5189.351-5560.3,5214.631-5526.835Z" transform="translate(1922.154 12.861)"/><path class="a" d="M4574.619-5084.876c1.2-21.827-.052-43.727-2.536-65.439-1.095-7.269-2.256-14.529-3.553-21.767-8.386-46.823-20.211-92.948-31.156-139.217-12.455-52.642-23.186-105.453-28.862-159.321a402.932,402.932,0,0,1-2.129-64.119,472.447,472.447,0,0,1,6.116-51.327c1.572-9.475,3.725-24.011,6.574-33.184h-476.5c4.016,7.161,8.792,16.236,13.164,23.181,34.718,55.17,67,111.795,100.39,167.754,42.9,71.883,88.384,142.159,137.521,209.966,26.376,36.395,54.584,71.4,86.362,103.348a461.217,461.217,0,0,0,52.311,45.78h140.635c.354-1.67.708-5.276,1.022-6.957C4574.23-5079.073,4574.458-5081.971,4574.619-5084.876Z" transform="translate(699.788 0.555)"/><path class="a" d="M4270.978-5619.249h-.565C4270.6-5618.961,4270.792-5618.675,4270.978-5619.249Z" transform="translate(949.003 0.555)"/><path class="a" d="M3674.358-5619.249h-2.694C3672.579-5618.715,3673.471-5618.14,3674.358-5619.249Z" transform="translate(294.085 0.555)"/><path class="a" d="M4958.8-5619.249h-3.224C4956.636-5618.474,4957.729-5618.821,4958.8-5619.249Z" transform="translate(1698.437 0.555)"/><path class="a" d="M4927.747-5178.894c-15.18-39.265-33.026-77.467-45.637-117.771-13.687-43.737-19.284-88.6-21.566-134.112-.549-10.914,1.646-21.538,2-32.344.775-23.67,4.9-46.866,10.677-69.816a322.139,322.139,0,0,1,36.393-86.313H4546.592c4.125,14.27,7.4,30.49,10.145,45.083,9,47.856,13.8,96.537,18.133,145.007,3.664,40.969,7.007,81.982,12.1,122.8,1.38,9.668,2.84,19.322,4.493,28.945,7.127,41.489,17.086,82.7,32.511,121.927q2,4.4,4.085,8.749a354.321,354.321,0,0,0,31.275,52.813c6.591,7.939,13.581,17.464,20.919,24.7h269.434a90.158,90.158,0,0,0,1.324-17.188C4950.4-5118.866,4939.3-5149.011,4927.747-5178.894Z" transform="translate(1251.089 0.555)"/><path class="a" d="M5361.751-5358.155c-21.582-24.106-41.643-49.436-61.2-75.206q-23.666-31.184-44.707-64.25c-24.265-38.146-45.736-80.4-64.249-121.639H4958.9c20.6,21.148,41.962,49.349,61.6,71.431,14.141,15.906,28.377,31.731,42.268,47.854,20.509,23.806,40.754,47.836,61.1,71.785q25.872,30.453,51.71,60.934c19.94,23.5,39.8,47.068,59.854,70.472,13.259,15.474,26.848,30.664,40.188,46.067,1.453,1.677,66.694,72.461,131.44,142.709a238.683,238.683,0,0,0,95-122.083c-8.964-6.785-17.875-13.648-26.68-20.67A936.125,936.125,0,0,1,5361.751-5358.155Z" transform="translate(1702.073 0.555)"/><path class="a" d="M4676.432-5132.128a606.129,606.129,0,0,1-18.958-70.36c-6.6-31.4-10.951-63.135-15.137-94.922-3.218-24.458-5.745-49-8.031-73.562-2.246-24.115-4.248-48.25-6.477-72.366-1.777-19.209-3.722-38.408-6.1-57.553-.824-5.622-1.687-11.237-2.636-16.839-4.487-26.528-10.385-53.057-19.814-78.308-3.521-7.4-7.448-16.3-11.85-23.21h-193.8c-2.5,1.4-4.979.751-7.423,0h-8.369c-5.139,4.515-10.006,20.8-14.553,25.909a163.4,163.4,0,0,0-10.043,17.278,205.151,205.151,0,0,0-8.156,31.2c-.3,3.37-.562,6.74-.746,10.119-1.269,23.247.082,46.567,2.755,69.685.206,1.367.386,2.737.6,4.1,6.639,42.538,16.674,84.466,26.7,126.3,9.942,41.474,20.149,82.955,27.325,125.017,7.555,44.276,14.331,90.355,10.058,135.39-.1,1.024-.206,3.994-.307,5.021h289.513c-1.164-2.571-2.306-7.086-3.415-9.679C4690.039-5096.475,4682.581-5114.021,4676.432-5132.128Z" transform="translate(1029.337 0.555)"/><path class="a" d="M5270.217-5239.041c-22.791-27.42-46.652-53.949-69.854-81.03-27.474-32.066-54.414-64.595-82.2-96.385-29.317-33.538-58.932-66.9-91.73-97.114-26.461-24.375-54.8-46.569-87.466-62.245-20.053-9.624-41.007-16.839-63.882-15.766-43.092,2.023-82.631,31.459-90.574,76.666-5.992,34.092-1.267,67.305,6.3,100.313,12.583,54.91,33.069,107.277,52.619,159.931,12.091,32.57,21.843,65.921,26,100.4a361.333,361.333,0,0,1,2.632,54.9h521.651q-21.355-22.747-42.053-46.086C5324.3-5176.457,5296.664-5207.225,5270.217-5239.041Z" transform="translate(1508.354 30.702)"/><path class="b" d="M3670.414-5618.959h2.617C3672.183-5619.452,3671.316-5619.911,3670.414-5618.959Z" transform="translate(292.718 0.265)"/><path class="b" d="M3714.251-5163.77c49.621-31.468,95.227-68.246,137.985-108.371,18.76-17.6,37.574-35.232,55.2-54.161,25.285-27.144,51.131-53.761,75.528-81.733,14.251-16.343,28.509-32.682,43.1-48.72,22.408-24.631,44.628-49.463,67.819-73.346a697.318,697.318,0,0,1,71.005-63.88c11.449-8.941,22.986-17.881,35.555-25.269H3962.338c-.887,1.109-1.78.534-2.694,0h-2.617c-19.273,20.383-37.167,48.224-55.84,69.136-20.427,22.878-40.819,45.84-62.24,67.772-27.117,27.764-54.293,55.488-83.5,81.169-21.564,18.964-43.53,37.347-66.324,54.812-43.911,33.647-91.055,61.812-142.536,82-44.55,17.472-90.3,30.021-138.2,30.927A238.706,238.706,0,0,0,3542.1-5087.915c16.329-4.093,32.483-8.924,48.429-14.645C3634.167-5118.211,3675.2-5139.007,3714.251-5163.77Z" transform="translate(6.106 0.555)"/><path class="b" d="M4957.113-5618.906h3.735C4959.707-5620.075,4958.431-5619.429,4957.113-5618.906Z" transform="translate(1700.121 0.212)"/><path class="b" d="M5522.443-5296.772c-20.051-23.4-39.914-46.974-59.854-70.472q-25.854-30.467-51.71-60.934c-20.344-23.949-40.589-47.979-61.1-71.785-13.891-16.124-28.127-31.949-42.268-47.854-19.636-22.083-41-50.283-61.6-71.431h-3.735c-1.068.428-2.161.775-3.224,0h-493.31a322.14,322.14,0,0,0-36.394,86.313c-5.775,22.95-9.9,46.146-10.677,69.816-.352,10.806-2.546,21.43-2,32.344,2.282,45.508,7.879,90.375,21.566,134.112,12.61,40.3,30.457,78.506,45.637,117.771,11.554,29.883,22.657,60.028,23.261,92.485a90.158,90.158,0,0,1-1.324,17.188h179.637a361.271,361.271,0,0,0-2.632-54.9c-4.154-34.481-13.905-67.833-26-100.4-19.55-52.654-40.037-105.021-52.619-159.931-7.566-33.007-12.291-66.22-6.3-100.312,7.944-45.207,47.482-74.642,90.575-76.666,22.875-1.073,43.829,6.142,63.882,15.766,32.662,15.675,61.005,37.87,87.466,62.245,32.8,30.213,62.413,63.576,91.73,97.114,27.788,31.791,54.727,64.319,82.2,96.385,23.2,27.081,47.063,53.609,69.854,81.03,26.446,31.816,54.081,62.583,81.437,93.587q20.633,23.382,42.053,46.086h76.83A236.888,236.888,0,0,0,5694.071-5108c-64.746-70.249-129.987-141.033-131.44-142.709C5549.291-5266.108,5535.7-5281.3,5522.443-5296.772Z" transform="translate(1415.053 0.555)"/><path class="b" d="M4408.977-5218.349c-49.137-67.807-94.625-138.083-137.521-209.966-33.395-55.959-65.672-112.584-100.39-167.754-4.372-6.945-9.147-16.02-13.164-23.181H3937.132c14.146,16.186,26.547,36.091,38.919,53.654,39.5,56.075,72.234,116.336,107.978,174.727,34.19,55.852,68.021,111.921,104.3,166.448q44.711,67.21,94.242,131.006,9.43,12.171,19.02,24.193h246.06a461.217,461.217,0,0,1-52.311-45.78C4463.562-5146.948,4435.354-5181.954,4408.977-5218.349Z" transform="translate(584.457 0.555)"/><path class="b" d="M4722.567-5146.735q-2.1-4.348-4.085-8.749c-15.425-39.226-25.384-80.438-32.511-121.927-1.654-9.624-3.113-19.277-4.493-28.945-5.091-40.821-8.434-81.834-12.1-122.8-4.337-48.47-9.13-97.151-18.133-145.007-2.745-14.593-6.02-30.812-10.145-45.083H4460.186c4.4,6.905,8.329,15.811,11.849,23.21,9.431,25.251,15.328,51.78,19.815,78.308.949,5.6,1.811,11.217,2.635,16.839,2.38,19.146,4.325,38.344,6.1,57.553,2.23,24.116,4.231,48.251,6.477,72.366,2.286,24.56,4.813,49.1,8.031,73.562,4.186,31.788,8.536,63.527,15.137,94.922a606.131,606.131,0,0,0,18.959,70.36c6.149,18.107,13.607,35.653,21.139,53.229,1.109,2.593,2.251,7.108,3.415,9.679h201.016c-7.338-7.238-14.327-16.763-20.919-24.7A354.4,354.4,0,0,1,4722.567-5146.735Z" transform="translate(1156.578 0.555)"/><path class="b" d="M4270.148-5619.075h.553C4270.515-5619.364,4270.328-5619.65,4270.148-5619.075Z" transform="translate(948.714 0.38)"/><path class="b" d="M4360.086-5618.694h8.369C4365.623-5619.562,4362.833-5620.57,4360.086-5618.694Z" transform="translate(1047.089 0)"/><path class="b" d="M4489.227-5209.631c-7.176-42.062-17.383-83.542-27.325-125.017-10.03-41.836-20.065-83.765-26.7-126.3-.214-1.367-.394-2.737-.6-4.1-2.673-23.118-4.023-46.437-2.755-69.685.185-3.379.442-6.75.746-10.119a205.267,205.267,0,0,1,8.157-31.2,163.4,163.4,0,0,1,10.043-17.278c4.547-5.107,9.415-21.394,14.553-25.909H4278.147c-.186.574-.377.288-.565,0h-.553c-2.849,9.173-5,23.709-6.574,33.184a472.447,472.447,0,0,0-6.116,51.327,402.932,402.932,0,0,0,2.129,64.119c5.676,53.868,16.407,106.679,28.862,159.321,10.945,46.269,22.77,92.394,31.156,139.217,1.3,7.238,2.458,14.5,3.553,21.767,2.483,21.713,3.74,43.613,2.536,65.439-.161,2.905-.389,5.8-.643,8.7-.314,1.681-.668,5.287-1.022,6.957h168.068c.1-1.027.209-4,.307-5.021C4503.558-5119.276,4496.781-5165.355,4489.227-5209.631Z" transform="translate(941.833 0.555)"/><path class="b" d="M4371.506-5619.249h-7.423C4366.527-5618.5,4369-5617.85,4371.506-5619.249Z" transform="translate(1051.461 0.555)"/><path class="b" d="M4316.984-5360.97a540.879,540.879,0,0,0-29.543-45.413c-13.687-18.658-27.93-37.548-44.879-53.453a317.937,317.937,0,0,0-35.75-28.451,153.055,153.055,0,0,0-20.971-12.328c-12.6-6.087-25.627-11.8-39.057-15.847-13.458-4.051-27.374-5.467-41.29-7.242-20.88-2.667-41.587.065-62.251,3.667-20.255,3.533-39.643,11.822-58.08,20.583-19.988,9.5-37.258,23.139-54.615,36.689a373.421,373.421,0,0,0-37.423,33.918c-24.393,25.014-46.282,52.311-68.7,79.066q-35.98,42.943-74.422,83.731c-29.9,31.65-60.978,64.181-93.176,93.49h222.352c7.572-8.253,15.094-18.536,22.515-26.925,22.269-25.18,43.478-51.236,65.22-76.866,20.938-24.684,42.718-49.01,67.7-69.692a206.071,206.071,0,0,1,27.3-16.533,153.13,153.13,0,0,1,17.981-5.018,137.709,137.709,0,0,1,14.931-.036,138,138,0,0,1,14.443,3.989,158.18,158.18,0,0,1,16.619,9.843,233.781,233.781,0,0,1,26.9,27.992c13.484,18.539,25.406,38.188,36.7,58.121q19.545,34.5,36.415,70.42c3.547,7.532,6.992,17.1,10.367,24.707h168.333c-11.466-30.462-24.083-62.5-37.595-92.083A1040.047,1040.047,0,0,0,4316.984-5360.97Z" transform="translate(277.859 103.891)"/><path class="b" d="M5340.824-5481.017q-14.228-16.429-27.672-33.511-25.233-33.442-47.473-69c-2.381-3.813-4.732-7.937-7.056-12.159a237.077,237.077,0,0,0-103.366-23.558h-85.225c18.513,41.235,39.985,83.493,64.25,121.639q21.015,33.029,44.707,64.25c19.56,25.77,39.621,51.1,61.2,75.206a936.085,936.085,0,0,0,113.621,107.406c8.805,7.022,17.716,13.885,26.681,20.67a237.754,237.754,0,0,0,12.8-77.175v-73.965a238.909,238.909,0,0,0-5.085-49.12C5371.812-5446.662,5355.964-5463.53,5340.824-5481.017Z" transform="translate(1823.634 0.555)"/></g></svg>