<svg xmlns="http://www.w3.org/2000/svg" width="694.261" height="474.324" viewBox="0 0 694.261 474.324"><defs><style>.a{fill:#fff;}.b{fill:#ea444b;}.c{fill:#ed7fa1;}</style></defs><g transform="translate(-10601.093 3220.568)"><path class="a" d="M11295.283-2932.715a43.927,43.927,0,0,0-9.636-25.2,41.34,41.34,0,0,0-13.843-11.24,39.909,39.909,0,0,0-17.97-4.213h-.1a8.028,8.028,0,0,1-8.011-8.555q.082-1.289.119-2.576l.021-.7-.009-.7c-.258-20.215-8.6-37.88-23.482-49.74q-.325-.259-.653-.514a13.641,13.641,0,0,1-2.193-19.405c1-1.235,1.982-2.5,2.932-3.807,18.205-24.987,12.949-46.119,8.2-56.491h0a33.519,33.519,0,0,0-5.911-8.847h0c-11.51-12.388-23.912-14.991-32.29-14.993h-.009l-.428,0a13.642,13.642,0,0,1-13.774-12.509,71.127,71.127,0,0,0-7.094-25.352l-.99-2.016-1.25-1.866a56.927,56.927,0,0,0-23.677-20.193,62.419,62.419,0,0,0-26.043-5.419c-16.87,0-32.354,5.907-42.382,10.849l-.037.019-.038.019c-21.207,10.738-26.833,37.829-35.079,35.3-6.806-2.085-4.417-15.1-6.835-23.789a42.759,42.759,0,0,0-41.69-31.881,45.23,45.23,0,0,0-26.249,8.409,13.637,13.637,0,0,1-15.957.164,43.326,43.326,0,0,0-12.108-6.151,123.682,123.682,0,0,0-39.261-6.457c-27.651,0-55.589,9.244-85.408,28.268-22.3,14.224-42.708,31.869-62.415,49.181a242.238,242.238,0,0,0-13.418-26.119c-7.262-12.119-14.954-22.022-22.863-29.434a73.462,73.462,0,0,0-16.731-11.982,53.128,53.128,0,0,0-24.26-6.037,49.9,49.9,0,0,0-25.42,7.046,60.959,60.959,0,0,0-17.814,16.494c-8.033,10.886-14.391,25.669-19.434,45.194l-.205.8-.167.805c-8.336,40.354-9.506,81.644-9.99,120.475l-.02,1.561.125,1.557c.5,6.2.231,13.584-.055,21.4-.644,17.529-1.372,37.4,5.821,57.13h0a33.5,33.5,0,0,0,7.062,11.47h0a42.428,42.428,0,0,0,14.979,10.3,43,43,0,0,0,16.339,3.192,44.7,44.7,0,0,0,31.981-13.555,42.526,42.526,0,0,0,12.048-31.225c-.121-3.881-.255-7.8-.387-11.593-.415-12.125-.816-23.838-.855-35.349a5.279,5.279,0,0,1,4.752-5.279l.1-.01a5.274,5.274,0,0,1,5.628,3.926c1.566,6.054,3.452,13.157,5.738,21.329,1.442,5.28,2.472,11.472,3.563,18.025,1.806,10.858,3.853,23.164,8.494,35.413h0a33.507,33.507,0,0,0,11.756,15.319h0a67.538,67.538,0,0,0,5.891,3.8,91.072,91.072,0,0,0-.614,11.968c.209,14.962,3.9,31.112,10.984,48.012.549,1.435,1.1,2.854,1.632,4.23,2.252,5.809,4.915,11.225,5.838,16.439,1.021,5.78,1.788,13.985,5.53,22.223a48.157,48.157,0,0,0,11.707,16.213,41.042,41.042,0,0,0,27.313,10.517c6.917,0,17.454-1.821,28.368-10.495l3.758-2.987,2.769-3.921c.705-1,1.422-2.1,2.129-3.289a11.957,11.957,0,0,1,12.025-5.727,228.611,228.611,0,0,0,33.078,2.489h.1a11.989,11.989,0,0,1,11.451,8.3,46.293,46.293,0,0,0,12.075,19.12,74.569,74.569,0,0,0,15.469,11.344c8.752,4.988,18.5,8.869,24.942,11.437,1.633.65,3.176,1.265,4.14,1.676,21.667,9.461,48.543,14.669,75.7,14.669,20.443,0,40.11-3.067,56.874-8.87a118.622,118.622,0,0,0,26.642-12.961,91.946,91.946,0,0,0,22.863-21.259c8.712-11.56,17.345-29.234,16.972-53.635a12.261,12.261,0,0,1,14.669-12.222,126.061,126.061,0,0,0,24.847,2.428,131.971,131.971,0,0,0,57.393-13.021c19.892-9.665,35.858-24.118,46.175-41.795A44.772,44.772,0,0,0,11295.283-2932.715Zm-433.245-35.941c-2.7-1.392-5.473-2.756-8.06-4a5.056,5.056,0,0,1,.28-9.239l.12-.048c10.322-4.227,22.328-13.556,29.931-21.788l.075-.081a4.111,4.111,0,0,1,6.662,4.68c-3.9,7.591-8.871,17.382-12.579,25.02A12.094,12.094,0,0,1,10862.038-2968.656Zm35.6,66.689c.178.132.356.26.537.389-.221.039-.436.082-.658.119C10897.563-2901.628,10897.6-2901.8,10897.642-2901.967Zm91.7,44.5a100.337,100.337,0,0,0,9.1-12.775,10.312,10.312,0,0,1,13.225-4.107c5.274,2.463,10.662,4.675,15.953,6.845,10.125,4.154,20.595,8.449,26.75,13.231,3.828,2.973,3.85,4.218,3.884,6.1l.032,1.864.24,1.849.007.06a5.1,5.1,0,0,1-2.555,5.06,32.608,32.608,0,0,1-6.045,2.573c-6.672,2.167-15.473,3.36-24.781,3.36a102.018,102.018,0,0,1-15.134-1.09l-.168-.025-.169-.024a153.493,153.493,0,0,1-17.411-3.52,10.385,10.385,0,0,1-5.074-16.9Q10988.286-2856.2,10989.338-2857.462Zm64.684-145.763q.756-.943,1.46-1.926c-.015.646-.016,1.295,0,1.944C11055-3003.216,11054.515-3003.224,11054.021-3003.225Zm9.261-24.665-.021.027,0-.041Z" transform="translate(0 0)"/><path class="b" d="M10895-3046.675c-9.878-9.313-25.793-6.806-34.27,3.137-3.85-6.3-13.809-6.015-17.4.409-3.708,16.43.029,76.448,17.516,82.277,18.821.467,7.987-20.185,6.525-30.7-1.1-12.1-.966-38.734,14.14-39.873,11.324,13.364,10.774,33.052,11.723,49.693-.326,8.816,11.416,13.642,17.437,7.224C10918.165-2995.1,10910.757-3030.572,10895-3046.675Z" transform="translate(-61.051 -42.592)"/><path class="b" d="M10963.837-3080.572c3.835,15.388,9.11,30.38,12.785,45.811,1.54,12.055,6.565,37.792,22.255,21.094,9-19.49-26.6-77.769,6.576-77.6,29.769-3.672,27.075,38.359,27.924,58.37-.224,13.2,20.582,13.258,20.429,0,3.141-42.748-15.192-97.587-67.969-73.887-5.179,2.758-5.486,4.966-8.148-1.026C10956.937-3123.039,10958.36-3093.25,10963.837-3080.572Z" transform="translate(-91.031 -27.381)"/><path class="c" d="M11127.883-3100.861c-7.17,13.429-.918,31.447.172,46.233,1.406,19.042,7.377,37.7,11.711,56.292,2.395,9.787,17.248,9.783,19.7,0a478.316,478.316,0,0,0-5.779-52.048C11150.348-3071.227,11153.561-3116.333,11127.883-3100.861Z" transform="translate(-132.627 -29.53)"/><path class="b" d="M11208.514-3064.926c19.527,40.925,84.772,45.927,118.885,20.382,10.76-9.332,30.214-26.059,23.187-41.394-11.879-12.787-19.06,6.264-24.639,14.724-17.012,21.952-48.772,26.735-73.873,17.43-6.053-1.329-16.41-7.478-22.012-13.9a6.843,6.843,0,0,1,5.687-11.337c33.915,2.85,72.073-34.5,55.719-67.8-11.168-16.662-34.3-10.85-49.436-3.375C11213.226-3135.883,11199.929-3095,11208.514-3064.926Zm22.732-42.576c5.637-15.363,17.228-26.862,33.791-29.286,20.891-3.873,4.739,24.578-4.247,29.991C11254.515-3100.417,11224.214-3092.979,11231.246-3107.5Z" transform="translate(-153.264 -15.96)"/><path class="b" d="M10997.963-2771.964c12.713-7.6,42.512-38.637,21.57-49.881-13.43-3.163-12.918,14.256-19.711,21.34-28.537,31.316-78.16,26.157-115.873,18.055,25.527-9.584,44.115-39.613,29.953-65.541-19.293-21.666-59.658-19-81.258-1.852-19.187,18.584-13.581,47.28-4.238,69.365,3.534,9.265,7.4,18.492,9.688,28.169-.011,10.714,5.786,27.521,18.756,17.213,7.238-10.253-.149-24.706-2.992-35.6C10899.089-2754.1,10954.461-2747.339,10997.963-2771.964Z" transform="translate(-55.424 -90.485)"/><path class="b" d="M11055.969-2925.68c-40.336-18.742-72.576,48.5-38.193,71.509C11066.031-2829.818,11104.252-2902.358,11055.969-2925.68Zm-6.65,52.44c-28.883,14.325-33.168-20.766-12.855-34.248C11057.807-2913.343,11064.15-2884.7,11049.318-2873.24Z" transform="translate(-101.901 -73.897)"/><path class="c" d="M11214.212-2779.274c-4.979-18.95-19.151-34.1-36.485-42.69-19.859-9.286-83.763-26.236-28.538-41.174,10.535-3.4,27.131,8.349,32.016-5.849.564-26.424-54.092-14.128-65.295-.617-42.975,64.74,79.813,43.8,80.914,105.99,5.965,46.013-53.286,52.515-86.8,47.389a184.953,184.953,0,0,1-44.506-12.123c-10.8-2.855-19.687-14.1-30.96-13.206-24.587,15.662,18.432,29.684,30.893,35.028C11122.842-2681.387,11239.309-2691.73,11214.212-2779.274Z" transform="translate(-107.947 -85.138)"/><path class="b" d="M11421.247-2867.864c-10.119-12.606-30.557,19.405-43.461,23.748-28.518,9.6-72.288,8.7-77.938-26.236-5.124-19.688,5.857.318,31.881.5,23.031.161,41.7-24.06,42.356-46.544-.534-42.183-62.388-39.246-78.168-7.953-10.209,25.514-23.376-23.249-38.527-17.971-24.579,8.563,26.713,38.311,23.025,53.773-14.373,84.344,107.27,91.981,141.6,33.163A11.059,11.059,0,0,0,11421.247-2867.864Zm-99.9-54.617c26.726-17.128,45.6,8.125,19.771,28.062-7.637,6.4-16.778,4.442-24.994.327a11.774,11.774,0,0,1-4.691-16.827A48.258,48.258,0,0,1,11321.351-2922.481Z" transform="translate(-164.605 -69.077)"/><path class="c" d="M10740.459-3084.472c-12.2-49-63.142-142.709-88.706-43.728-7.742,37.475-8.825,75.962-9.3,114.114,1.836,22.722-3.877,48.57,3.846,69.76,6,6.387,17.746,1.605,17.443-7.224-.742-23.793-1.945-47.629-.768-71.407.989-19.956,8.633-13.569,30.172-14.926,45.852-2.889,29.951-27.165,51.355,49.312,4.528,16.515,5.1,34.689,11.094,50.494,20.947,15.081,18.967-14.085,14.484-27.04-5.891-30.437-12.634-60.729-20.973-90.6,56.775-37.083,108.126-118.125,180.762-97.368,11.418,4.142,17.8-14.113,6.006-17.824-73.218-24.616-135.156,51.583-192.257,96.479Zm-22.521,18.722c-15.9,6.893-33.333,10-50.581,7.608-8.148-4.615,1.033-31.722.287-42.624,4.2-26.695,10.818-76.583,33.9-26.505C10705.076-3116.735,10732.906-3067.176,10717.938-3065.75Z" transform="translate(-10.395 -11.373)"/><path class="a" d="M10873.113-2837.662c61.74-6.7,23.23,50-16.745,45.328-10.455-1.221-8.88-16.51-9.181-24.525C10848.387-2830.347,10861.027-2836.364,10873.113-2837.662Z" transform="translate(-62.358 -96.887)"/></g></svg>