<svg xmlns="http://www.w3.org/2000/svg" width="906.232" height="274" viewBox="0 0 906.232 274">
  <g id="Group_102" data-name="Group 102" transform="translate(-829.621 -1205.933)">
    <text id="MEDIA_DESIGN_SCHOOL_" data-name="MEDIA DESIGN SCHOOL
" transform="translate(1136.715 1236.557)" fill="#ea454c" font-size="30" font-family="Futura-Bold, Futura" font-weight="700" letter-spacing="0.046em"><tspan x="0" y="31">MEDIA DESIGN SCHOOL</tspan></text>
    <g id="Group_75" data-name="Group 75" transform="translate(862.632 1230.635)">
      <circle id="Ellipse_12" data-name="Ellipse 12" cx="111.994" cy="111.994" r="111.994" fill="#ea454c"/>
      <g id="noun_Bachelor_cap_3360714" data-name="noun_Bachelor cap_3360714" transform="translate(26.976 55.158)">
        <path id="Path_102" data-name="Path 102" d="M171.548,46.762a1.7,1.7,0,0,0-.042-.352,1.557,1.557,0,0,0-.025-.2c-.014-.04-.044-.068-.061-.107a1.6,1.6,0,0,0-.181-.314,1.714,1.714,0,0,0-.193-.252,1.847,1.847,0,0,0-.261-.2,1.713,1.713,0,0,0-.307-.175c-.039-.016-.067-.047-.109-.061L87.083,17.425a1.528,1.528,0,0,0-.2-.025,1.718,1.718,0,0,0-.356-.042,1.636,1.636,0,0,0-.358.044,1.476,1.476,0,0,0-.195.025L2.69,45.1c-.04.014-.067.044-.107.061a1.621,1.621,0,0,0-.316.182,1.7,1.7,0,0,0-.251.193,1.728,1.728,0,0,0-.2.259,1.67,1.67,0,0,0-.175.307c-.018.039-.049.068-.063.109a1.582,1.582,0,0,0-.025.2,1.5,1.5,0,0,0,0,.7,1.582,1.582,0,0,0,.025.2c.016.049.049.084.068.132a1.832,1.832,0,0,0,.358.53,1.9,1.9,0,0,0,.147.144,1.769,1.769,0,0,0,.5.284c.016.005.026.019.042.025l25.524,8.481V91.092a1.663,1.663,0,0,0,.046.23,1.77,1.77,0,0,0,.075.372,1.58,1.58,0,0,0,.153.284,1.714,1.714,0,0,0,.191.284,1.633,1.633,0,0,0,.277.224,1.924,1.924,0,0,0,.195.16,117,117,0,0,0,54.929,13.224,146.993,146.993,0,0,0,46.435-7.834v5.678c-.005.019-.021.033-.026.051l-6.831,25.884a1.581,1.581,0,0,0-.014.223,1.638,1.638,0,0,0-.044.224c0,.044.023.081.026.123a1.764,1.764,0,0,0,.068.347,1.7,1.7,0,0,0,.109.309,1.554,1.554,0,0,0,.182.27,1.715,1.715,0,0,0,.223.254,1.615,1.615,0,0,0,.263.179,1.654,1.654,0,0,0,.326.16,1.078,1.078,0,0,0,.11.054,1.833,1.833,0,0,0,.444.058h13.834a1.834,1.834,0,0,0,.444-.058c.04-.011.07-.04.11-.054a2.4,2.4,0,0,0,.589-.338,1.712,1.712,0,0,0,.223-.254,1.623,1.623,0,0,0,.182-.27,1.8,1.8,0,0,0,.109-.31,1.751,1.751,0,0,0,.07-.345c0-.042.025-.079.025-.123a1.95,1.95,0,0,0-.044-.224,1.586,1.586,0,0,0-.014-.223l-6.831-25.884c-.005-.019-.019-.032-.025-.047V96.8a98.6,98.6,0,0,0,9.873-4.149,1.958,1.958,0,0,0,.177-.142,1.7,1.7,0,0,0,.309-.249,1.635,1.635,0,0,0,.17-.253,1.758,1.758,0,0,0,.175-.319,2.032,2.032,0,0,0,.067-.33,1.746,1.746,0,0,0,.053-.267V56.909l25.524-8.481c.018-.005.028-.019.042-.025a1.774,1.774,0,0,0,.494-.282,2.222,2.222,0,0,0,.4-.47,1.872,1.872,0,0,0,.107-.2,1.31,1.31,0,0,0,.068-.13,1.556,1.556,0,0,0,.025-.2A1.727,1.727,0,0,0,171.548,46.762Zm-34.64,81.579h-9.275l4.638-17.573Zm-4.4-71.027L86.987,45.07a1.754,1.754,0,0,0-.912,3.388l40.386,10.864L86.531,72.588,8.806,46.762,86.531,20.937l77.725,25.826ZM31.723,90V58.074L85.978,76.1a.016.016,0,0,1,.009,0,1.729,1.729,0,0,0,1.087,0,.016.016,0,0,0,.009,0L130.516,61.67V94.337C111.261,101.049,71.188,110.262,31.723,90Zm109.617-.009c-1.259.6-3.765,1.72-7.315,3.068V60.5l7.315-2.43Z" transform="translate(-1.512 -17.358)" fill="#ffeaf5" stroke="#ffeaf5" stroke-width="3"/>
      </g>
    </g>
    <g id="Group_74" data-name="Group 74" transform="translate(1136.715 1287.39)">
      <line id="Line_20" data-name="Line 20" x2="475.607" transform="translate(0 17.331)" fill="#fa3842"/>
      <g id="Group_73" data-name="Group 73">
        <path id="Path_104" data-name="Path 104" d="M-6112.913-8555.877h-124.093a16.945,16.945,0,0,0-16.945,16.945h0a16.944,16.944,0,0,0,16.945,16.944h124.093Z" transform="translate(6253.951 8555.877)" fill="#f87bab"/>
        <path id="Path_105" data-name="Path 105" d="M-5521.042-8555.877h-320.909v33.89h320.909c7.4,0,13.4-7.585,13.4-16.944h0C-5507.643-8548.29-5513.642-8555.877-5521.042-8555.877Z" transform="translate(5982.99 8555.877)" fill="#ea454c"/>
      </g>
    </g>
    <text id="Diploma_in_Digital_Creativity_2018_Bachelor_of_Media_Design_2019_-_2021" data-name="Diploma in Digital Creativity
2018
Bachelor of Media Design
2019 - 2021" transform="translate(1189.146 1340.624)" fill="#f87bab" font-size="20" font-family="Futura-Medium, Futura" font-weight="500"><tspan x="0" y="21">Diploma in Digital Creativity</tspan><tspan x="0" y="48">2018</tspan><tspan fill="#ea454c"><tspan x="0" y="75">Bachelor of Media Design</tspan><tspan x="0" y="102">2019 - 2021</tspan></tspan></text>
    <circle id="Ellipse_13" data-name="Ellipse 13" cx="15.5" cy="15.5" r="15.5" transform="translate(1136.715 1344.055)" fill="#f87bab"/>
    <circle id="Ellipse_14" data-name="Ellipse 14" cx="15.5" cy="15.5" r="15.5" transform="translate(1137.486 1394.399)" fill="#ea454c"/>
    <g id="Rectangle_32" data-name="Rectangle 32" transform="translate(829.621 1205.933)" fill="none" stroke="#ea454c" stroke-width="10">
      <rect width="906.232" height="274" rx="137" stroke="none"/>
      <rect x="5" y="5" width="896.232" height="264" rx="132" fill="none"/>
    </g>
  </g>
</svg>
