<svg xmlns="http://www.w3.org/2000/svg" width="124.705" height="124.705" viewBox="0 0 124.705 124.705"><defs><style>.a{fill:#15095c;}.b{fill:#9b97c8;}</style></defs><g transform="translate(-1639 -1907.932)"><g transform="translate(1639 1907.932)"><circle class="a" cx="62.353" cy="62.353" r="62.353"/></g><g transform="translate(9628.187 13232.567)"><g transform="translate(-7972.305 -11289.95)"><path class="b" d="M-7927.374-11235.617c-1.611,0-3.225-.049-4.833.019a1.4,1.4,0,0,1-1.587-1.158c-1.2-3.627-2.475-7.232-3.67-10.862a1.186,1.186,0,0,0-1.354-.963q-8.613.047-17.224,0a1.169,1.169,0,0,0-1.333.986c-1.1,3.553-2.29,7.082-3.387,10.638a1.588,1.588,0,0,1-1.785,1.337c-2.818-.06-5.64-.018-8.46-.021-1.393,0-1.525-.194-1.053-1.552q4.947-14.2,9.9-28.4c2.13-6.11,4.3-12.206,6.352-18.342a28.205,28.205,0,0,0,.976-5c.1-.714.317-1.016,1.038-1.014,4.13.013,8.259.021,12.389-.006.847-.006,1.134.436,1.385,1.144q6.064,17.114,12.17,34.212,3.1,8.719,6.2,17.438c.506,1.419.42,1.537-1.095,1.539Zm-20.156-44.455c-2.129,7.059-4.232,14.032-6.349,21.055H-7941C-7943.195-11266.089-7945.358-11273.067-7947.53-11280.072Z" transform="translate(7972.305 11289.95)"/><path class="b" d="M-7695.548-11204.358a8.752,8.752,0,0,0,5.069,7.622,17.462,17.462,0,0,0,9.67,1.144c2.448-.333,4.863-.9,7.426-1.392a5.8,5.8,0,0,1,.1.838c.011,2.283-.028,4.566.021,6.849a1.638,1.638,0,0,1-1.214,1.809,34.121,34.121,0,0,1-14.673,1.736,19.442,19.442,0,0,1-10.735-3.852,18.918,18.918,0,0,1-7.084-12.356c-1.051-6.337-.287-12.407,3.205-17.909a17.664,17.664,0,0,1,15.628-8.687c3.994-.037,7.778.614,11.116,2.882a16.163,16.163,0,0,1,6.914,11.8,62.813,62.813,0,0,1,.055,8.427c0,.818-.521,1.085-1.267,1.084-2.747,0-5.494.008-8.241.008q-7.5,0-15.008,0Zm-.024-7.663c.363.024.659.06.955.06q5.236,0,10.473,0c.738,0,1.477-.018,2.215-.037.881-.021,1.472-.376,1.219-1.354a11.611,11.611,0,0,0-.977-2.92,7.15,7.15,0,0,0-8.257-3.044A7.815,7.815,0,0,0-7695.573-11212.021Z" transform="translate(7760.867 11240.949)"/></g></g></g></svg>