<svg xmlns="http://www.w3.org/2000/svg" width="124.705" height="124.705" viewBox="0 0 124.705 124.705"><defs><style>.a{fill:#320507;}.b{fill:#f79a10;}</style></defs><g transform="translate(-1015.353 -1907.932)"><g transform="translate(1015.353 1907.932)"><circle class="a" cx="62.353" cy="62.353" r="62.353"/></g><g transform="translate(7252.778 10419.873)"><g transform="translate(-6207.454 -8478.344)"><path class="b" d="M-6184.129-8438.288h5.86c.819,0,.819,0,1.1.79q2.4,6.8,4.811,13.6,6.377,17.988,12.758,35.974c.276.779.15.955-.683.957h-9.621c-.721,0-.807-.065-1.048-.762q-1.887-5.459-3.767-10.921a.553.553,0,0,0-.621-.451q-8.668.016-17.337,0a.573.573,0,0,0-.642.489q-1.726,5.385-3.478,10.759c-.261.807-.37.888-1.216.888h-8.547c-.932,0-1.046-.149-.741-1.033q2.519-7.279,5.048-14.555,5.229-15.057,10.466-30.114a15.1,15.1,0,0,0,.911-5.006c0-.471.189-.625.645-.622C-6188.2-8438.28-6186.164-8438.287-6184.129-8438.288Zm6.315,29.381-6.333-20.431c-1.775,6.886-4.139,13.579-6.131,20.431Z" transform="translate(6207.455 8442.21)"/><path class="b" d="M-5663.05-8291.815v-18.414c0-.891.125-1.017,1.01-1.017h8.889c.768,0,.954.181.954.946q0,18.536,0,37.073c0,.791-.188.974-.981.974h-8.792c-.884,0-1.08-.2-1.08-1.1Q-5663.051-8282.584-5663.05-8291.815Z" transform="translate(5716.281 8327.585)"/><path class="b" d="M-5668.2-8472.351a5.875,5.875,0,0,1,6.074-5.993,5.693,5.693,0,0,1,5.957,6,5.858,5.858,0,0,1-5.988,6.144A5.784,5.784,0,0,1-5668.2-8472.351Z" transform="translate(5720.928 8478.344)"/></g></g></g></svg>