<svg xmlns="http://www.w3.org/2000/svg" width="124.705" height="124.705" viewBox="0 0 124.705 124.705"><defs><style>.a{fill:#490a20;}.b{fill:#f43167;}</style></defs><g transform="translate(-1206.295 -1907.932)"><g transform="translate(1206.295 1907.932)"><circle class="a" cx="62.353" cy="62.353" r="62.353"/></g><g transform="translate(7294.798 9288.258)"><g transform="translate(-6053.076 -7346.729)"><path class="b" d="M-5852.272-7321.538c0,7.315-.012,14.631.011,21.946,0,1.4.129,2.8.229,4.2a1.028,1.028,0,0,1-.74,1.164,39.157,39.157,0,0,1-11.472,2.686,29.255,29.255,0,0,1-9.593-.556,17.448,17.448,0,0,1-11.579-8.394,18.229,18.229,0,0,1-2.19-7.144,21.82,21.82,0,0,1,.648-9.239c2.331-7.145,7.221-11.613,14.438-13.546a25.359,25.359,0,0,1,9.039-.687c.489.047.519-.155.518-.542q-.015-7.1-.007-14.2c0-.855.026-.88.9-.881h9.009c.7,0,.771.067.771.788q0,12.2,0,24.4Zm-10.7,10.074c0-3.329-.014-6.659.016-9.989,0-.486-.181-.614-.59-.685a12.033,12.033,0,0,0-6.293.456c-3.243,1.194-5.693,3.264-6.6,6.718a13.687,13.687,0,0,0,.486,8.677,8.209,8.209,0,0,0,4.493,4.739c2.546,1.095,5.208,1.009,7.887.749.516-.05.62-.3.617-.785C-5862.982-7304.877-5862.972-7308.17-5862.972-7311.464Z" transform="translate(5905.879 7346.729)"/><path class="b" d="M-6053.076-7284.065q0-12.093,0-24.186c0-.95.116-1.067,1.062-1.067h8.518c.963,0,1.105.141,1.105,1.1v34.068q0,7.1,0,14.195c0,1-.131,1.134-1.133,1.134q-4.259,0-8.517,0c-.9,0-1.034-.138-1.034-1.054Q-6053.077-7271.972-6053.076-7284.065Z" transform="translate(6053.076 7313.409)"/></g></g></g></svg>