<svg xmlns="http://www.w3.org/2000/svg" width="124.705" height="124.705" viewBox="0 0 124.705 124.705"><defs><style>.a{fill:#0e1f36;}.b{fill:#2da3c9;}</style></defs><g transform="translate(-813.381 -1907.932)"><g transform="translate(813.381 1907.932)"><circle class="a" cx="62.353" cy="62.353" r="62.353"/></g><g transform="translate(7945.182 9934.821)"><g transform="translate(-7104.99 -7991.115)"><path class="b" d="M-7094.288-7955.458V-7940c0,.847-.152,1-1,1h-8.809c-.785,0-.891-.1-.891-.865q0-25.071,0-50.141c0-.681.1-.822.666-.834,5.067-.1,10.134-.234,15.2-.274a28.542,28.542,0,0,1,9.822,1.44,16.62,16.62,0,0,1,9.22,7.269,16.8,16.8,0,0,1,2.247,7.513,19.025,19.025,0,0,1-1.4,9.144,16.117,16.117,0,0,1-9.793,8.823,29.216,29.216,0,0,1-9.518,1.52c-1.672.023-3.344-.033-5.017-.053C-7093.772-7955.46-7093.983-7955.458-7094.288-7955.458Zm.055-9.354c.133.013.243.033.354.034,1.507.03,3.014.1,4.521.076a16.557,16.557,0,0,0,5.816-1.068c2.417-.939,4.237-2.5,4.773-5.173a11.717,11.717,0,0,0,.236-2.78,7.04,7.04,0,0,0-3.878-6.387,10.439,10.439,0,0,0-4.424-1.2c-2.159-.084-4.323-.055-6.484-.065-.3,0-.608.047-.914.072Z" transform="translate(7104.989 7991.115)"/><path class="b" d="M-6674.078-7833.748q0-1.967,0-3.935c0-.922.2-1.04.988-.606a23.691,23.691,0,0,0,12.962,2.9,8.218,8.218,0,0,0,2.521-.569,2.105,2.105,0,0,0,.684-3.7,10.636,10.636,0,0,0-2.621-1.6c-1.979-.905-4.033-1.646-6-2.568a18.759,18.759,0,0,1-5.178-3.438c-4.86-4.7-3.89-12.251.377-16.136a14.462,14.462,0,0,1,7.442-3.534,33.683,33.683,0,0,1,9.652-.045,19.434,19.434,0,0,1,4.82,1.11c.831.321.972.513.974,1.424q.007,3.321,0,6.642c0,.247,0,.492,0,.738,0,.944-.449,1.179-1.338.825a39.666,39.666,0,0,0-4.148-1.483,21.487,21.487,0,0,0-6.423-.744,11.393,11.393,0,0,0-2.659.417,2.18,2.18,0,0,0-.925,3.768,6.222,6.222,0,0,0,1.68,1.177c1.919.874,3.905,1.607,5.809,2.514a44.014,44.014,0,0,1,5.359,2.874,9.964,9.964,0,0,1,4.652,8.419,11.707,11.707,0,0,1-8.01,11.618,24.316,24.316,0,0,1-8.939,1.332,30.447,30.447,0,0,1-9.187-1.436c-.59-.2-1.158-.452-1.735-.686a1.145,1.145,0,0,1-.761-1.191C-6674.066-7831.025-6674.078-7832.385-6674.078-7833.748Z" transform="translate(6716.527 7879.502)"/></g></g></g></svg>