<svg xmlns="http://www.w3.org/2000/svg" width="124.705" height="124.705" viewBox="0 0 124.705 124.705">
  <g id="Group_111" data-name="Group 111" transform="translate(-1434.263 -1955.073)">
    <circle id="Ellipse_15" data-name="Ellipse 15" cx="62.353" cy="62.353" r="62.353" transform="translate(1434.263 1955.073)" fill="#470a37"/>
    <g id="_50nKkg.tif" data-name="50nKkg.tif" transform="translate(9764.346 11800.039)">
      <g id="Group_84" data-name="Group 84" transform="translate(-8308.374 -9810.281)">
        <path id="Path_113" data-name="Path 113" d="M-7807.911-9794.633v-14.833c0-.73.084-.813.828-.813q4.518,0,9.036,0c.7,0,.795.095.795.8q0,12.693,0,25.389,0,10.709.035,21.421c.006,1.239.137,2.479.219,3.719.041.641-.085.875-.658,1.113a38.262,38.262,0,0,1-11.186,2.69,31.39,31.39,0,0,1-7.247-.021c-4.645-.657-8.835-2.27-12.075-5.846a17,17,0,0,1-4.214-8.992,23.213,23.213,0,0,1,.071-8.788,19.328,19.328,0,0,1,11.855-14.182,24.952,24.952,0,0,1,11.941-1.694C-7808.335-9794.655-7808.162-9794.647-7807.911-9794.633Zm0,9.1c-.2-.052-.355-.1-.511-.129a12.035,12.035,0,0,0-6.311.41c-3.238,1.17-5.7,3.221-6.643,6.647a13.68,13.68,0,0,0,.372,8.544,8.264,8.264,0,0,0,4.426,4.895c2.612,1.178,5.355,1.078,8.114.806.468-.046.563-.285.562-.729q-.021-9.937-.01-19.876Z" transform="translate(7878.277 9810.28)" fill="#f45fad"/>
        <path id="Path_114" data-name="Path 114" d="M-8286.647-9735.344c-.119.217-.2.352-.269.49q-4.743,8.889-9.481,17.783a.977.977,0,0,1-.9.59c-.255.007-.509.026-.763.026q-4.83,0-9.656-.006a3.238,3.238,0,0,1-.657-.131,2.637,2.637,0,0,1,.19-.711q2.755-4.557,5.538-9.1,4.477-7.34,8.962-14.677a.746.746,0,0,0,0-.9q-7.069-11.941-14.113-23.9a2.752,2.752,0,0,1-.191-.647,2.649,2.649,0,0,1,.658-.178c3.521-.011,7.044,0,10.564-.015a1.363,1.363,0,0,1,1.41.9c1.775,3.975,3.958,7.734,6.1,11.515,1.092,1.925,2.094,3.9,3.135,5.851.1.182.188.365.31.6a2.856,2.856,0,0,0,.2-.286q4.525-8.6,9.043-17.2a3.927,3.927,0,0,0,.324-.639c.187-.6.595-.712,1.176-.709,3.218.024,6.438.013,9.656.014a1.9,1.9,0,0,1,.381.01c.355.074.435.328.222.682q-2.231,3.677-4.46,7.354-4.8,7.926-9.613,15.847a.736.736,0,0,0,0,.895q7.389,12.088,14.743,24.192a5.2,5.2,0,0,1,.361,1.043,9.1,9.1,0,0,1-.975.1q-4.994.009-9.99,0c-.079,0-.159-.007-.239,0a2.175,2.175,0,0,1-2.34-1.415c-2.964-5.671-6.021-11.293-9.047-16.933C-8286.431-9735.02-8286.515-9735.133-8286.647-9735.344Z" transform="translate(8308.373 9770.883)" fill="#f45fad"/>
      </g>
    </g>
  </g>
</svg>
